<svg xmlns="http://www.w3.org/2000/svg" width="1280" height="360" viewBox="0 0 1280 360" role="img" aria-labelledby="title desc">
  <title id="title">HawkinsOperations Detection Engineering SOC</title>
  <desc id="desc">A dark command-center banner showing the proof-bound route from source through public rendering, bounded by TEST_VALIDATED_SYNTHETIC_SCOPE.</desc>
  <rect width="1280" height="360" fill="#080b10"/>
  <rect x="28" y="28" width="1224" height="304" rx="18" fill="#0c1118" stroke="#2b3542"/>
  <path d="M68 92 H1212" stroke="#253241" stroke-width="1"/>
  <path d="M68 268 H1212" stroke="#253241" stroke-width="1"/>
  <text x="68" y="86" fill="#d8dee8" font-family="Segoe UI, Arial, sans-serif" font-size="34" font-weight="700">HawkinsOperations Detection Engineering SOC</text>
  <text x="68" y="124" fill="#8fd8ff" font-family="Segoe UI, Arial, sans-serif" font-size="18">Governed detection engineering, SOC automation, and AI-assisted security operations</text>
  <text x="68" y="298" fill="#aeb9c6" font-family="Segoe UI, Arial, sans-serif" font-size="16">Website rendering is not proof</text>
  <g transform="translate(68 168)">
    <g fill="#0f1721" stroke="#6f7d8d" stroke-width="1.2">
      <rect x="0" y="0" width="142" height="58" rx="8"/>
      <rect x="190" y="0" width="142" height="58" rx="8"/>
      <rect x="380" y="0" width="142" height="58" rx="8"/>
      <rect x="570" y="0" width="142" height="58" rx="8"/>
      <rect x="760" y="0" width="142" height="58" rx="8"/>
      <rect x="950" y="0" width="142" height="58" rx="8"/>
    </g>
    <g stroke="#8fd8ff" stroke-width="1.5" stroke-linecap="round">
      <path d="M142 29 H190"/>
      <path d="M332 29 H380"/>
      <path d="M522 29 H570"/>
      <path d="M712 29 H760"/>
      <path d="M902 29 H950"/>
      <path d="M181 22 L190 29 L181 36"/>
      <path d="M371 22 L380 29 L371 36"/>
      <path d="M561 22 L570 29 L561 36"/>
      <path d="M751 22 L760 29 L751 36"/>
      <path d="M941 22 L950 29 L941 36"/>
    </g>
    <g fill="#d8dee8" font-family="Segoe UI, Arial, sans-serif" font-size="17" font-weight="600">
      <text x="37" y="36">Source</text>
      <text x="220" y="36">Validation</text>
      <text x="416" y="36">Runtime</text>
      <text x="615" y="36">Signal</text>
      <text x="805" y="36">Evidence</text>
      <text x="968" y="36">Public Rendering</text>
    </g>
  </g>
  <g transform="translate(842 72)">
    <rect x="0" y="0" width="370" height="46" rx="23" fill="#111a25" stroke="#8fd8ff"/>
    <text x="185" y="30" text-anchor="middle" fill="#d8f1ff" font-family="Segoe UI, Arial, sans-serif" font-size="15" font-weight="700">TEST_VALIDATED_SYNTHETIC_SCOPE</text>
  </g>
  <g stroke="#5f7184" stroke-width="1" fill="none" opacity="0.8">
    <path d="M1024 286 h120 v-30 h66"/>
    <path d="M1032 300 h86"/>
    <circle cx="1210" cy="256" r="4" fill="#8fd8ff" stroke="none"/>
  </g>
</svg>
